<mxfile host="app.diagrams.net" modified="2024-05-11T05:23:45.269Z" agent="Mozilla/5.0 (Macintosh; Intel Mac OS X 10_15_7) AppleWebKit/605.1.15 (KHTML, like Gecko) Version/17.2.1 Safari/605.1.15" etag="w31rOzICm335aepG3Es7" version="24.3.1" type="github">
  <diagram name="Page-1" id="ysY1Wkqkzzi-XGPjac2x">
    <mxGraphModel dx="1314" dy="901" grid="1" gridSize="10" guides="1" tooltips="1" connect="1" arrows="1" fold="1" page="1" pageScale="1" pageWidth="850" pageHeight="1100" math="0" shadow="0">
      <root>
        <mxCell id="0" />
        <mxCell id="1" parent="0" />
        <mxCell id="ZB5VKNZ-isscg_wm2WyH-3" value="" style="edgeStyle=orthogonalEdgeStyle;rounded=0;orthogonalLoop=1;jettySize=auto;html=1;" edge="1" parent="1" source="ZB5VKNZ-isscg_wm2WyH-1" target="ZB5VKNZ-isscg_wm2WyH-2">
          <mxGeometry relative="1" as="geometry" />
        </mxCell>
        <mxCell id="ZB5VKNZ-isscg_wm2WyH-1" value="&amp;nbsp;Multiphase CT Scans from HCC-TACE Dataset:" style="rounded=0;whiteSpace=wrap;html=1;" vertex="1" parent="1">
          <mxGeometry x="355" y="140" width="130" height="60" as="geometry" />
        </mxCell>
        <mxCell id="ZB5VKNZ-isscg_wm2WyH-5" value="" style="edgeStyle=orthogonalEdgeStyle;rounded=0;orthogonalLoop=1;jettySize=auto;html=1;" edge="1" parent="1" source="ZB5VKNZ-isscg_wm2WyH-2" target="ZB5VKNZ-isscg_wm2WyH-4">
          <mxGeometry relative="1" as="geometry" />
        </mxCell>
        <mxCell id="ZB5VKNZ-isscg_wm2WyH-2" value="SA-1: DL-based Automatic Liver and Liver Tumor Segmentation" style="rounded=0;whiteSpace=wrap;html=1;fillColor=#d5e8d4;strokeColor=#82b366;" vertex="1" parent="1">
          <mxGeometry x="340" y="240" width="160" height="60" as="geometry" />
        </mxCell>
        <mxCell id="ZB5VKNZ-isscg_wm2WyH-8" value="" style="edgeStyle=orthogonalEdgeStyle;rounded=0;orthogonalLoop=1;jettySize=auto;html=1;" edge="1" parent="1" source="ZB5VKNZ-isscg_wm2WyH-4" target="ZB5VKNZ-isscg_wm2WyH-7">
          <mxGeometry relative="1" as="geometry" />
        </mxCell>
        <mxCell id="ZB5VKNZ-isscg_wm2WyH-10" value="" style="edgeStyle=orthogonalEdgeStyle;rounded=0;orthogonalLoop=1;jettySize=auto;html=1;" edge="1" parent="1" source="ZB5VKNZ-isscg_wm2WyH-4" target="ZB5VKNZ-isscg_wm2WyH-9">
          <mxGeometry relative="1" as="geometry" />
        </mxCell>
        <mxCell id="ZB5VKNZ-isscg_wm2WyH-4" value="Segmented Liver and Liver Tumor Volumes" style="whiteSpace=wrap;html=1;rounded=0;" vertex="1" parent="1">
          <mxGeometry x="360" y="340" width="120" height="60" as="geometry" />
        </mxCell>
        <mxCell id="ZB5VKNZ-isscg_wm2WyH-16" style="edgeStyle=orthogonalEdgeStyle;rounded=0;orthogonalLoop=1;jettySize=auto;html=1;exitX=0.5;exitY=1;exitDx=0;exitDy=0;entryX=0.5;entryY=0;entryDx=0;entryDy=0;" edge="1" parent="1" source="ZB5VKNZ-isscg_wm2WyH-7" target="ZB5VKNZ-isscg_wm2WyH-13">
          <mxGeometry relative="1" as="geometry" />
        </mxCell>
        <mxCell id="ZB5VKNZ-isscg_wm2WyH-7" value="SA-2: Radiomics-based ML model for TACE Response Prediction" style="whiteSpace=wrap;html=1;rounded=0;fillColor=#f8cecc;strokeColor=#b85450;" vertex="1" parent="1">
          <mxGeometry x="270" y="470" width="140" height="60" as="geometry" />
        </mxCell>
        <mxCell id="ZB5VKNZ-isscg_wm2WyH-18" style="edgeStyle=orthogonalEdgeStyle;rounded=0;orthogonalLoop=1;jettySize=auto;html=1;exitX=0.5;exitY=1;exitDx=0;exitDy=0;entryX=0.5;entryY=0;entryDx=0;entryDy=0;" edge="1" parent="1" source="ZB5VKNZ-isscg_wm2WyH-9" target="ZB5VKNZ-isscg_wm2WyH-13">
          <mxGeometry relative="1" as="geometry" />
        </mxCell>
        <mxCell id="ZB5VKNZ-isscg_wm2WyH-9" value="SA-3: Image-based DL model for TACE Response Prediction" style="whiteSpace=wrap;html=1;rounded=0;fillColor=#dae8fc;strokeColor=#6c8ebf;" vertex="1" parent="1">
          <mxGeometry x="430" y="470" width="130" height="60" as="geometry" />
        </mxCell>
        <mxCell id="ZB5VKNZ-isscg_wm2WyH-13" value="Predicted Response&lt;div&gt;CR, PR, SD, PD&lt;/div&gt;" style="rounded=0;whiteSpace=wrap;html=1;" vertex="1" parent="1">
          <mxGeometry x="360" y="600" width="120" height="40" as="geometry" />
        </mxCell>
      </root>
    </mxGraphModel>
  </diagram>
</mxfile>
